<?xml version="1.0" encoding="UTF-8"?>
<svg width="24px" height="24px" viewBox="0 0 24 24" xmlns="http://www.w3.org/2000/svg" xmlns:xlink="http://www.w3.org/1999/xlink" version="1.1">
 <!-- Generated by Pixelmator Pro 1.5.1 -->
 <path id="Tracé" d="M0 0 L24 0 24 24 0 24 Z" fill="none" stroke="none"/>
 <path id="Tracé-1" d="M19 4 L5 4 C3.89 4 3 4.9 3 6 L3 18 C3 19.1 3.89 20 5 20 L9 20 9 18 5 18 5 8 19 8 19 18 15 18 15 20 19 20 C20.1 20 21 19.1 21 18 L21 6 C21 4.9 20.11 4 19 4 Z M12 10 L8 14 11 14 11 20 13 20 13 14 16 14 Z" fill="#036cad" fill-opacity="1" stroke="none"/>
</svg>
