<svg id="Layer_1" data-name="Layer 1" xmlns="http://www.w3.org/2000/svg" viewBox="0 0 484 102"><defs><style>.cls-1{fill:#02303a;}</style></defs><title>gradle-build-tool-dark-green-secondary</title><path class="cls-1" d="M280.73,40a19.3,19.3,0,0,1,5,.57,9.53,9.53,0,0,1,3.49,1.67,6.74,6.74,0,0,1,2,2.7,9.33,9.33,0,0,1,.66,3.61,7.2,7.2,0,0,1-.46,2.56,8,8,0,0,1-1.33,2.28A8.61,8.61,0,0,1,288,55.21a10.55,10.55,0,0,1-2.91,1.17A10.79,10.79,0,0,1,291.17,59a7.2,7.2,0,0,1,2.12,5.41,9.3,9.3,0,0,1-.76,3.84,7.67,7.67,0,0,1-2.21,2.9A10.06,10.06,0,0,1,286.76,73a17.12,17.12,0,0,1-4.79.62h-10.9V40Zm-7.21,1.92v13.8h7.26a11.7,11.7,0,0,0,4-.6,7.68,7.68,0,0,0,2.7-1.56A6,6,0,0,0,289,51.35a6.76,6.76,0,0,0,.5-2.54,6.23,6.23,0,0,0-2.15-5.14c-1.43-1.17-3.65-1.75-6.64-1.75Zm8.42,29.73q4.43,0,6.69-1.91a6.66,6.66,0,0,0,2.26-5.38,6.59,6.59,0,0,0-.6-2.86,5.89,5.89,0,0,0-1.75-2.16,8.05,8.05,0,0,0-2.8-1.37A14,14,0,0,0,282,57.5h-8.45V71.65ZM317.77,50V73.59h-1.26a.64.64,0,0,1-.69-.61l-.21-3.52a13.26,13.26,0,0,1-3.79,3.28A9.43,9.43,0,0,1,307,74a8.88,8.88,0,0,1-3.44-.61,6.32,6.32,0,0,1-2.45-1.78,7.84,7.84,0,0,1-1.47-2.81,12.74,12.74,0,0,1-.5-3.7V50h2.28v15.1A8.1,8.1,0,0,0,303,70.28a5.57,5.57,0,0,0,4.63,1.89A8.35,8.35,0,0,0,311.92,71a12,12,0,0,0,3.57-3.26V50ZM329,41.83a1.9,1.9,0,0,1-.17.79,2.4,2.4,0,0,1-.47.66,2.15,2.15,0,0,1-.66.45,2,2,0,0,1-.81.16,2.05,2.05,0,0,1-.81-.16A2.15,2.15,0,0,1,325,42.62a1.9,1.9,0,0,1-.17-.79A2.08,2.08,0,0,1,325,41a2.12,2.12,0,0,1,.45-.68,2.15,2.15,0,0,1,.66-.45,2.06,2.06,0,0,1,.81-.17,2,2,0,0,1,.81.17,2.15,2.15,0,0,1,.66.45,2.36,2.36,0,0,1,.47.68A2.08,2.08,0,0,1,329,41.83Zm-1,8.14V73.59h-2.26V50Zm10.54-10.92V73.59h-2.28V39.05Zm26.38,0V73.59h-1.24A.64.64,0,0,1,363,73l-.24-3.73a12.46,12.46,0,0,1-3.65,3.39,8.92,8.92,0,0,1-4.7,1.26,8.2,8.2,0,0,1-6.79-3c-1.62-2-2.42-5-2.42-9a16.73,16.73,0,0,1,.67-4.83,11.52,11.52,0,0,1,2-3.89,9.46,9.46,0,0,1,3.22-2.6,9.69,9.69,0,0,1,4.4-1,9.15,9.15,0,0,1,4.16.88,8.59,8.59,0,0,1,3.06,2.61v-14Zm-2.26,16a8,8,0,0,0-3-2.87,8.16,8.16,0,0,0-3.76-.83,8.25,8.25,0,0,0-3.66.76,7.09,7.09,0,0,0-2.62,2.15,9.4,9.4,0,0,0-1.59,3.32,15.82,15.82,0,0,0-.54,4.26q0,5.28,1.94,7.75a6.65,6.65,0,0,0,5.59,2.49,7.8,7.8,0,0,0,4.25-1.22,11.4,11.4,0,0,0,3.39-3.39Zm44.42-13h-11.8V73.59h-2.44V42.06H381V40h26.11Zm8,7.53a11.28,11.28,0,0,1,4.54.87,9.42,9.42,0,0,1,3.39,2.45,10.88,10.88,0,0,1,2.1,3.84,17.83,17.83,0,0,1,0,10,10.79,10.79,0,0,1-2.1,3.82,9.19,9.19,0,0,1-3.39,2.45,12.58,12.58,0,0,1-9.09,0,9.19,9.19,0,0,1-3.39-2.45,10.83,10.83,0,0,1-2.12-3.82,17.83,17.83,0,0,1,0-10,10.92,10.92,0,0,1,2.12-3.84,9.42,9.42,0,0,1,3.39-2.45A11.33,11.33,0,0,1,415.16,49.59Zm0,22.53a8.8,8.8,0,0,0,3.69-.72,7.07,7.07,0,0,0,2.64-2.08,9.26,9.26,0,0,0,1.58-3.26,17.87,17.87,0,0,0,0-8.56,9.33,9.33,0,0,0-1.58-3.29,7.12,7.12,0,0,0-2.64-2.1,9.57,9.57,0,0,0-7.38,0,7,7,0,0,0-2.64,2.1,9.51,9.51,0,0,0-1.59,3.29,17.55,17.55,0,0,0,0,8.56,9.45,9.45,0,0,0,1.59,3.26,7,7,0,0,0,2.64,2.08A8.8,8.8,0,0,0,415.16,72.12Zm26.5-22.53a11.31,11.31,0,0,1,4.54.87,9.42,9.42,0,0,1,3.39,2.45,11.21,11.21,0,0,1,2.1,3.84,17.83,17.83,0,0,1,0,10,11.11,11.11,0,0,1-2.1,3.82,9.19,9.19,0,0,1-3.39,2.45,12.58,12.58,0,0,1-9.09,0,9.31,9.31,0,0,1-3.4-2.45,10.81,10.81,0,0,1-2.11-3.82,17.83,17.83,0,0,1,0-10,10.9,10.9,0,0,1,2.11-3.84,9.54,9.54,0,0,1,3.4-2.45A11.33,11.33,0,0,1,441.66,49.59Zm0,22.53a8.87,8.87,0,0,0,3.69-.72A7,7,0,0,0,448,69.32a9.09,9.09,0,0,0,1.58-3.26,17.87,17.87,0,0,0,0-8.56A9.16,9.16,0,0,0,448,54.21a7,7,0,0,0-2.63-2.1,9.6,9.6,0,0,0-7.39,0,7,7,0,0,0-2.63,2.1,9.17,9.17,0,0,0-1.59,3.29,17.23,17.23,0,0,0,0,8.56,9.11,9.11,0,0,0,1.59,3.26A7,7,0,0,0,438,71.4,8.88,8.88,0,0,0,441.66,72.12Zm19.63-33.07V73.59H459V39.05ZM146.48,56.32V70.27a18.32,18.32,0,0,1-5.59,2.83,22.17,22.17,0,0,1-6.36.89,21.18,21.18,0,0,1-7.65-1.31A17,17,0,0,1,121,69a16,16,0,0,1-3.73-5.58A18.59,18.59,0,0,1,116,56.37a19.58,19.58,0,0,1,1.26-7.14,15.68,15.68,0,0,1,9.23-9.2,20.37,20.37,0,0,1,7.44-1.29,22.15,22.15,0,0,1,3.93.33,20.57,20.57,0,0,1,3.38.92,14,14,0,0,1,2.85,1.42,17.4,17.4,0,0,1,2.37,1.84l-1.84,2.91a1.75,1.75,0,0,1-1.12.84,2,2,0,0,1-1.5-.34l-1.58-.91a10.87,10.87,0,0,0-1.75-.79,14.64,14.64,0,0,0-2.17-.54,15.36,15.36,0,0,0-2.78-.22,12,12,0,0,0-4.62.86,9.7,9.7,0,0,0-3.51,2.46,11.07,11.07,0,0,0-2.25,3.84,15.14,15.14,0,0,0-.78,5,15.48,15.48,0,0,0,.84,5.28,11.09,11.09,0,0,0,2.39,3.93A10,10,0,0,0,129.5,68a14.28,14.28,0,0,0,8.25.44,16.7,16.7,0,0,0,2.93-1.09V61.14h-4.34a1.3,1.3,0,0,1-1-.35,1.15,1.15,0,0,1-.35-.85V56.32ZM157,53.38a10.46,10.46,0,0,1,2.72-3.44,5.77,5.77,0,0,1,3.72-1.25,4.56,4.56,0,0,1,2.72.73l-.38,4.42a1.19,1.19,0,0,1-.35.61.94.94,0,0,1-.61.17,8.2,8.2,0,0,1-1.06-.11,8.1,8.1,0,0,0-1.37-.12,5,5,0,0,0-1.74.28,4.26,4.26,0,0,0-1.37.83,5.31,5.31,0,0,0-1.07,1.3,12.79,12.79,0,0,0-.88,1.74V73.61h-5.89V49.14h3.46a1.94,1.94,0,0,1,1.27.32,1.9,1.9,0,0,1,.47,1.16Zm11.35-.83a14.53,14.53,0,0,1,10.17-3.86,9.92,9.92,0,0,1,3.84.7,8.26,8.26,0,0,1,2.86,2,8.51,8.51,0,0,1,1.78,3,11.62,11.62,0,0,1,.6,3.81V73.61h-2.67a2.71,2.71,0,0,1-1.29-.25,1.72,1.72,0,0,1-.71-1l-.53-1.77a20.18,20.18,0,0,1-1.81,1.47,11,11,0,0,1-1.84,1.06,10,10,0,0,1-2,.66,11.78,11.78,0,0,1-2.39.22,9.71,9.71,0,0,1-2.87-.41,6.32,6.32,0,0,1-2.26-1.26,5.49,5.49,0,0,1-1.48-2.07,7.38,7.38,0,0,1-.52-2.89,5.7,5.7,0,0,1,.31-1.85,5.3,5.3,0,0,1,1-1.75,8.42,8.42,0,0,1,1.82-1.57A11.43,11.43,0,0,1,173,60.9a23.4,23.4,0,0,1,3.8-.9,36.92,36.92,0,0,1,5-.41V58.15a5.39,5.39,0,0,0-1-3.63,3.83,3.83,0,0,0-3-1.18,7.3,7.3,0,0,0-2.38.33,9.5,9.5,0,0,0-1.66.75l-1.29.75a2.52,2.52,0,0,1-1.3.34,1.65,1.65,0,0,1-1-.33,2.62,2.62,0,0,1-.7-.75Zm13.5,10.61a33.37,33.37,0,0,0-4.29.44,11.39,11.39,0,0,0-2.79.83,3.57,3.57,0,0,0-1.5,1.17,2.53,2.53,0,0,0-.45,1.45,2.56,2.56,0,0,0,.91,2.22,4,4,0,0,0,2.4.67,7,7,0,0,0,3.14-.66,9.34,9.34,0,0,0,2.58-2Zm32.54-25V73.61h-3.6a1.39,1.39,0,0,1-1.48-1.07l-.5-2.36a12.4,12.4,0,0,1-3.4,2.74,9.17,9.17,0,0,1-4.47,1,8,8,0,0,1-6.55-3.26,11.61,11.61,0,0,1-1.86-3.92,19.71,19.71,0,0,1-.66-5.34,16.77,16.77,0,0,1,.74-5.06,12.54,12.54,0,0,1,2.12-4.06A10.1,10.1,0,0,1,198,49.65a9.64,9.64,0,0,1,4.34-1,8.63,8.63,0,0,1,3.51.64,9.12,9.12,0,0,1,2.6,1.74V38.17Zm-5.89,17.22a5.79,5.79,0,0,0-2.19-1.72,6.47,6.47,0,0,0-2.54-.5,5.63,5.63,0,0,0-2.4.5,4.84,4.84,0,0,0-1.84,1.51,7.33,7.33,0,0,0-1.17,2.58,14.79,14.79,0,0,0-.41,3.69,16.28,16.28,0,0,0,.35,3.63,7.14,7.14,0,0,0,1,2.44,3.73,3.73,0,0,0,1.58,1.36,5.1,5.1,0,0,0,2.07.41,6,6,0,0,0,3.12-.76,9.37,9.37,0,0,0,2.44-2.17Zm17.67-17.22V73.61h-5.89V38.17Zm10.43,23.94a11.38,11.38,0,0,0,.66,3.26,6.65,6.65,0,0,0,1.39,2.27,5.39,5.39,0,0,0,2,1.33,7.22,7.22,0,0,0,2.61.44,8.25,8.25,0,0,0,2.47-.33,11.51,11.51,0,0,0,1.81-.74c.52-.27,1-.52,1.36-.74a2.31,2.31,0,0,1,1.13-.33,1.23,1.23,0,0,1,1.1.54L252.81,70a9.69,9.69,0,0,1-2.19,1.92,12.18,12.18,0,0,1-2.54,1.24,14,14,0,0,1-2.7.66,18.82,18.82,0,0,1-2.66.19,12.92,12.92,0,0,1-4.74-.85,10.57,10.57,0,0,1-3.82-2.5,11.75,11.75,0,0,1-2.55-4.11,15.84,15.84,0,0,1-.93-5.66,13.55,13.55,0,0,1,.81-4.71,11.32,11.32,0,0,1,2.32-3.84,11.06,11.06,0,0,1,3.7-2.59,12.15,12.15,0,0,1,4.93-1,11.86,11.86,0,0,1,4.27.74,9.36,9.36,0,0,1,3.36,2.15,10.11,10.11,0,0,1,2.21,3.49,13,13,0,0,1,.79,4.71,3.85,3.85,0,0,1-.28,1.8,1.19,1.19,0,0,1-1.1.46Zm11.23-3.55a7.28,7.28,0,0,0-.32-2.16,5.3,5.3,0,0,0-1-1.78,4.53,4.53,0,0,0-1.63-1.2,5.68,5.68,0,0,0-2.3-.44,5.45,5.45,0,0,0-4,1.45,7.14,7.14,0,0,0-1.88,4.13ZM103.53,14.25a14.47,14.47,0,0,0-20.12-.34,2.55,2.55,0,0,0-.8,1.82,2.59,2.59,0,0,0,.74,1.84L85,19.23a2.56,2.56,0,0,0,3.33.23,6.28,6.28,0,0,1,10,5,6.18,6.18,0,0,1-1.84,4.43c-3.52,3.53-7.35,1.82-14.39-1.76-9.4-4.79-22.29-11.36-41.39-2.26a5.56,5.56,0,0,0-2.94,3.39A5.62,5.62,0,0,0,38,32l-1.19.84A32.6,32.6,0,0,0,25.07,48.4,43.62,43.62,0,0,0,23.6,71.54a2.54,2.54,0,0,0,2.5,2.07H32a2.55,2.55,0,0,0,2.52-2.22,7.28,7.28,0,0,1,14.45,0,2.56,2.56,0,0,0,2.53,2.22h5.7a2.54,2.54,0,0,0,2.52-2.22,7.29,7.29,0,0,1,14.46,0,2.55,2.55,0,0,0,2.52,2.22h5.64a2.55,2.55,0,0,0,2.54-2.5c.16-9.41,2.32-15.57,7-20l5.2-4.2a28.7,28.7,0,0,0,10.73-22.44A14.39,14.39,0,0,0,103.53,14.25ZM95.42,44.91l-5.24,4.24-.08.06c-6.73,6.31-7.73,15-7.85,21.82H76.69a9.87,9.87,0,0,0-19.57,0H51.48a9.87,9.87,0,0,0-19.57,0H26.13a41.17,41.17,0,0,1,1.36-21.74A30,30,0,0,1,38.26,35l.94-.67,4.54,7.85a5.62,5.62,0,0,0,7.41,2.16l.19-.08,2.41-1.35,0,0A56.07,56.07,0,0,0,61.58,37a1.29,1.29,0,0,0-1.74-1.9,55.5,55.5,0,0,1-7.37,5.5l-2.12,1.18-.17.08-.13.07A3,3,0,0,1,46,40.84l-5.24-9.06,0,0-.18-.31a3,3,0,0,1-.27-2.4,3,3,0,0,1,1.59-1.82c8-3.8,15.44-5,22.84-3.85,6.39,1.05,11.64,3.72,16.27,6.08,6.64,3.38,12.38,6.3,17.39,1.29A8.85,8.85,0,0,0,86.82,17.38L85.2,15.77a11.9,11.9,0,0,1,20,8.71A26.11,26.11,0,0,1,95.42,44.91ZM79.54,34.49A2.54,2.54,0,0,0,77,37h0l4,2a2.53,2.53,0,0,0-1.51-4.57Z"/></svg>