<?xml version="1.0" encoding="UTF-8"?>
<svg width="24px" height="24px" viewBox="0 0 24 24" xmlns="http://www.w3.org/2000/svg" xmlns:xlink="http://www.w3.org/1999/xlink" version="1.1">
 <!-- Generated by Pixelmator Pro 1.5.1 -->
 <path id="Tracé" d="M0 0 L24 0 24 24 0 24 Z" fill="none" stroke="none"/>
 <path id="Tracé-1" d="M16 1 L4 1 C2.9 1 2 1.9 2 3 L2 17 4 17 4 3 16 3 Z M15 5 L21 11 21 21 C21 22.1 20.1 23 19 23 L7.99 23 C6.89 23 6 22.1 6 21 L6.01 7 C6.01 5.9 6.9 5 8 5 Z M14 12 L19.5 12 14 6.5 Z" fill="#036cad" fill-opacity="1" stroke="none"/>
</svg>
